<?xml version="1.0" standalone="no"?>
<svg id="Group204" width="57" height="65" viewBox="0 0 57 65" fill="none" xmlns="http://www.w3.org/2000/svg" style="max-width: 100%; max-height: 100%;">
<path d="M54.5733 2.98673C53.8884 2.30549 52.9812 1.93084 52.0158 1.93084C52.0109 1.93084 52.006 1.93084 52.0018 1.93084C51.0329 1.93434 50.1244 2.31531 49.4429 3.00427C49.4282 3.019 49.4135 3.03444 49.3995 3.05058L45.5128 7.50287C44.4444 6.40558 42.9819 5.72855 41.4003 5.64085L37.4968 5.42336C36.6247 5.37495 35.9236 5.11957 35.224 4.59548L32.0937 2.25076C29.8678 0.583079 26.8764 0.583079 24.6505 2.25076L21.5203 4.59548C20.8213 5.11957 20.1203 5.37495 19.2474 5.42336L15.3439 5.64085C12.5677 5.7952 10.2759 7.71966 9.64218 10.4292L8.75043 14.2388C8.55133 15.0899 8.17836 15.736 7.54109 16.3345L4.68987 19.0118C2.6624 20.9159 2.14291 23.864 3.39711 26.3476L5.16099 29.8394C5.55498 30.6196 5.68468 31.3549 5.58092 32.2227L5.11682 36.1082C4.78662 38.871 6.28269 41.4634 8.83876 42.5593L11.7783 43.8193L5.76881 56.7398C5.53535 57.2408 5.59985 57.8252 5.93566 58.2637C6.27217 58.7029 6.819 58.9155 7.36302 58.8208L13.6775 57.7165L16.8982 63.2632C17.1646 63.7214 17.649 63.9992 18.1755 63.9992C18.198 63.9992 18.2204 63.9985 18.2428 63.9978C18.7946 63.9725 19.2825 63.6456 19.5153 63.1447L25.1925 50.9412L27.1624 50.3455C27.9988 50.0923 28.7447 50.0923 29.5811 50.3455L31.5511 50.9412L37.2283 63.1447C37.4611 63.6463 37.949 63.9733 38.5021 63.9985C38.5246 63.9992 38.547 63.9999 38.5694 63.9999C39.0952 63.9999 39.5804 63.7221 39.8468 63.2639L43.0675 57.7172L49.3819 58.8215C49.9267 58.9176 50.4735 58.7036 50.81 58.2644C51.1458 57.8252 51.2103 57.2415 50.9769 56.7405L44.9659 43.82L47.9055 42.56C50.4616 41.4648 51.9576 38.8717 51.6274 36.1089L51.1633 32.2234C51.0596 31.3556 51.1893 30.6203 51.5833 29.8401L53.3472 26.3483C54.6014 23.8647 54.0819 20.9166 52.0544 19.0125L49.2039 16.3352C48.8155 15.9704 48.5259 15.5845 48.3135 15.1481C51.1213 11.9173 53.5063 9.21195 54.5901 8.11747C55.9958 6.69604 55.9888 4.39482 54.5733 2.98673ZM18.1222 61.3261L15.0782 56.0839C14.8644 55.7162 14.4452 55.5205 14.0252 55.5934L8.05638 56.6374L13.5611 44.8051C13.8303 45.0443 14.0687 45.3228 14.286 45.6561L16.4257 48.9304C17.7948 51.0254 20.2072 52.0637 22.6161 51.6645L18.1222 61.3261ZM42.7204 55.5934C42.3012 55.5212 41.8813 55.7162 41.6674 56.0839L38.6234 61.3261L34.1282 51.6638C34.4689 51.72 34.8089 51.7487 35.1469 51.7487C37.1982 51.7487 39.1429 50.7286 40.3186 48.9297L42.4582 45.6554C42.6756 45.3228 42.9139 45.0443 43.1831 44.8044L48.6879 56.6367L42.7204 55.5934ZM47.8137 17.8156L50.6642 20.4928C52.0502 21.7943 52.3916 23.7328 51.5342 25.4299L49.7703 28.9218C49.2004 30.0499 48.9964 31.2082 49.1464 32.4634L49.6105 36.3488C49.8362 38.2375 48.8526 39.9416 47.1056 40.6902L43.5112 42.2302C42.3503 42.7284 41.4501 43.484 40.7589 44.542L38.6192 47.8163C37.5788 49.4082 35.7308 50.081 33.9116 49.531L30.1693 48.3993C28.96 48.0338 27.785 48.0338 26.5757 48.3993L22.8334 49.531C21.0141 50.081 19.1661 49.4082 18.1257 47.8163L15.9861 44.542C15.2949 43.484 14.394 42.7284 13.233 42.2302L9.63867 40.6895C7.89163 39.9409 6.90803 38.2368 7.13378 36.3481L7.59788 32.4627C7.74791 31.2075 7.5439 30.0492 6.97393 28.921L5.21006 25.4292C4.35266 23.7321 4.69408 21.7936 6.08008 20.4921L8.9313 17.8149C9.8525 16.9498 10.44 15.9311 10.7281 14.7005L11.6199 10.8909C12.0531 9.03866 13.5597 7.77369 15.4575 7.66845L19.361 7.45096C20.6222 7.3808 21.7271 6.97878 22.738 6.22107L25.8683 3.87635C27.3896 2.73696 29.3561 2.73626 30.8781 3.87635L34.0083 6.22107C35.0193 6.97878 36.1241 7.3808 37.3853 7.45096L41.2889 7.66845C42.433 7.73229 43.4509 8.222 44.1737 9.03655L39.7444 14.1105C36.6464 11.2227 32.6504 9.64343 28.3732 9.64343C19.1556 9.64343 11.6563 17.1483 11.6563 26.3729C11.6563 35.5974 19.1556 43.1023 28.3732 43.1023C37.5908 43.1023 45.09 35.5974 45.09 26.3729C45.09 24.2435 44.6967 22.1781 43.9221 20.2213C44.9281 19.0567 45.9355 17.8899 46.9121 16.7632C47.1659 17.1364 47.4638 17.4872 47.8137 17.8156ZM19.2152 26.9503L26.4663 34.2068C27.1519 34.893 28.064 35.2712 29.0336 35.2712C30.0039 35.2712 30.9152 34.893 31.6009 34.2068C33.2806 32.5258 37.8088 27.299 42.3937 21.99C42.834 23.4002 43.0576 24.8687 43.0576 26.3729C43.0576 34.4769 36.4698 41.0698 28.3718 41.0698C20.2738 41.0698 13.6859 34.4769 13.6859 26.3729C13.6859 18.2688 20.2752 11.6766 28.3725 11.6766C32.1505 11.6766 35.679 13.0784 38.4068 15.6427L28.9775 26.4437L24.3498 21.8125C22.9343 20.396 20.6306 20.396 19.2145 21.8125C18.5289 22.4987 18.151 23.4115 18.151 24.3818C18.151 25.3521 18.5296 26.2641 19.2152 26.9503ZM53.1473 6.68552C51.4129 8.43739 46.7684 13.8158 41.8518 19.5099C36.9661 25.1689 31.9143 31.0195 30.1651 32.77C29.8629 33.0724 29.4612 33.2386 29.0336 33.2386C28.6059 33.2386 28.2042 33.0724 27.9021 32.77L20.651 25.5134C20.3488 25.211 20.1827 24.809 20.1827 24.3811C20.1827 23.9531 20.3488 23.5511 20.651 23.2487C20.9629 22.9365 21.3724 22.7807 21.7825 22.7807C22.1919 22.7807 22.602 22.9365 22.914 23.2487L28.3101 28.6488C28.5092 28.8481 28.7812 28.9554 29.0623 28.9456C29.3435 28.9365 29.6078 28.8102 29.7928 28.5983L46.2349 9.7641C46.237 9.762 46.2384 9.75989 46.2405 9.75779L50.9053 4.41447C51.2019 4.12471 51.5924 3.96475 52.0088 3.96335C52.0109 3.96335 52.013 3.96335 52.0151 3.96335C52.44 3.96335 52.8396 4.12822 53.141 4.4285C53.7636 5.04801 53.7664 6.0604 53.1473 6.68552Z" stroke="#77D0FF" stroke-width="1.2" stroke-dasharray="0,0,0,842.254150390625"><animate attributeType="XML" attributeName="stroke-dasharray" repeatCount="indefinite" dur="3.125s" values="0,0,0,842.254150390625; 
          0,421.1270751953125,421.1270751953125,0; 
          842.254150390625,0,0,0" keyTimes="0; 0.5; 1" fill="freeze"></animate></path>
</svg>