<?xml version="1.0" standalone="no"?>
<svg id="Group325" width="56" height="63" viewBox="0 0 56 63" fill="none" xmlns="http://www.w3.org/2000/svg" style="max-width: 100%; max-height: 100%;">
<mask id="path-1-inside-1_717_1001" fill="white">
<path d="M55.4277 33.0727C52.7263 33.1883 50.1962 33.3017 48.2999 33.9932L48.6445 33.2461C48.7602 32.9015 48.6445 32.4991 48.2999 32.3835C47.9553 32.2679 47.5529 32.3835 47.4373 32.7281L46.459 35.0848C44.2735 33.9931 42.0901 32.0944 39.7337 30.1401C34.8468 26.0003 29.3286 21.3447 23.0609 24.1041C23.1187 23.9885 23.1765 23.8751 23.2343 23.7017C23.35 23.357 23.1765 22.9546 22.8319 22.839C22.4851 22.7256 22.0827 22.8968 21.9671 23.2437C20.8176 26.3474 19.0923 28.533 17.0802 29.3378C15.8151 29.8558 14.5501 29.798 13.2272 29.1644C12.7092 28.9354 12.538 28.4173 12.4223 28.1305C12.2489 27.5547 12.3067 26.9232 12.5958 26.5208L16.391 20.3112C17.0224 19.2195 18.0585 18.3569 19.3235 17.8966C21.509 17.0918 23.6924 16.4026 25.8781 15.8267C27.201 15.4243 28.5795 15.4243 30.0179 15.6533L33.1217 16.2291C34.329 16.4581 35.1916 16.5738 35.9965 16.6316C41.6303 17.034 45.0229 19.3907 46.1146 23.5886C46.2302 23.9332 46.5748 24.1644 46.9195 24.0488C47.2641 23.9332 47.4953 23.5886 47.3797 23.2439C46.9773 21.692 46.288 20.3114 45.3098 19.2197C48.587 18.9329 51.8644 17.2076 54.6232 15.5401C54.91 15.3667 55.0256 14.9643 54.8522 14.6197C54.6787 14.3328 54.2763 14.2172 53.9317 14.3907C50.9413 16.1738 47.3771 18.0125 43.9291 17.8969C41.9748 16.4028 39.329 15.4823 36.0517 15.2533C35.3047 15.1955 34.4998 15.0799 33.2926 14.8509L30.1888 14.2751C28.5791 13.9883 26.9695 14.0461 25.4754 14.4485C25.1886 14.5063 24.9574 14.5641 24.6705 14.6775C19.3234 13.9305 14.9548 14.3907 11.3326 16.1716C9.14705 17.2054 6.1589 16.574 2.76596 15.6536C2.42134 15.5379 2.07675 15.7692 1.96109 16.1138C1.95887 16.574 2.19009 16.9764 2.5347 17.0342C4.77582 17.6101 6.90355 18.1259 8.74436 18.1259C9.89381 18.1259 10.9855 17.9525 12.0215 17.4945C14.6651 16.2294 17.7713 15.6558 21.393 15.827C20.5881 16.1138 19.7254 16.4028 18.9206 16.6896C17.3687 17.2654 16.1036 18.2993 15.2988 19.68L11.5035 25.8896C11.0433 26.5789 10.9277 27.6149 11.2167 28.5332C11.4457 29.3958 11.9638 30.0851 12.7108 30.3719C13.5734 30.8321 14.4939 31.0033 15.4121 31.0033C16.1592 31.0033 16.9062 30.8299 17.5977 30.5431C19.3808 29.8539 20.9327 28.2441 22.1399 26.0586H22.1977C28.3499 22.15 33.6967 26.6901 38.8705 31.1189C41.514 33.36 43.9864 35.4878 46.6323 36.5817C47.0347 37.2709 47.1503 37.9623 46.8613 38.7094C46.5745 39.4564 45.9986 39.9167 45.1938 40.1456C42.8371 40.7215 38.6972 38.8805 34.9601 35.5456C34.6732 35.3166 34.2709 35.3166 34.0396 35.6034C33.8106 35.8902 33.8106 36.2926 34.0974 36.5239C37.3746 39.3986 40.8808 41.2373 43.5844 41.5264C43.2975 42.5602 42.7217 43.2516 41.9169 43.5385C39.3867 44.5723 34.7891 42.2734 32.2586 40.3769C31.9718 40.1479 31.5694 40.2035 31.3381 40.4925C31.1091 40.7793 31.1647 41.1817 31.4537 41.413C33.2924 42.8492 36.3406 44.5167 39.1 44.977C38.5819 45.724 37.9505 46.1264 37.1457 46.3577C35.0758 46.8757 32.1432 45.495 30.1312 44.0587C30.0734 43.9431 30.0734 43.8297 30.0156 43.7141C29.671 42.9671 29.0951 42.3913 28.2903 42.1044C27.6011 41.8176 26.8541 41.7598 26.0492 41.8754C26.0492 41.8176 26.0492 41.8176 25.9914 41.7598C25.589 40.726 24.8997 39.9211 23.9793 39.5187C23.2901 39.2319 22.4852 39.1741 21.7381 39.3453C21.5091 38.5983 21.0489 37.9646 20.3019 37.5622C19.0946 36.873 17.1982 37.102 15.5306 38.0802C15.5306 37.7934 15.4728 37.5622 15.415 37.3332C15.186 36.5283 14.668 35.9525 13.8631 35.5501C12.1956 34.5718 9.95452 35.0321 8.45822 36.5284C6.21711 34.9765 3.68697 33.9983 0.754487 33.6536C0.409871 33.5958 0.0652773 33.8826 0.00744945 34.2294C-0.0503556 34.5741 0.23645 34.9187 0.58328 34.9765C3.28463 35.3211 5.58579 36.1838 7.65581 37.62C7.31119 38.2514 7.25339 39.0007 7.369 39.8055C7.598 40.955 8.28946 41.991 9.26547 42.5647C9.84131 42.9093 10.4727 43.0827 11.1042 43.0827C11.4488 43.0827 11.7934 43.0249 12.138 42.9093C12.0802 44.29 12.7695 45.3817 14.3791 46.4155C14.955 46.8179 15.5864 46.9913 16.2178 46.9913C16.5047 46.9913 16.7359 46.9335 17.0227 46.8757C17.0805 46.8757 17.1961 46.8179 17.2517 46.8179C17.5385 47.9674 18.3434 48.8878 19.5507 49.4614C20.0109 49.6904 20.5289 49.8061 20.9869 49.8061C21.4471 49.8061 21.8495 49.7483 22.3098 49.5771C22.4254 49.5193 22.5966 49.4614 22.7122 49.4036C23.1146 50.0351 23.6905 50.4375 24.3219 50.7265C24.7821 50.8999 25.2423 51.0133 25.7026 51.0133C26.1628 51.0133 26.623 50.8977 27.0833 50.7265C27.6591 50.4975 28.1171 50.0951 28.5773 49.5771C29.7846 50.1529 30.934 50.4397 31.9701 50.4397C33.7532 50.4397 35.1895 49.6348 36.1678 47.9673C36.5124 47.9673 36.9148 47.9095 37.2594 47.8517C38.5823 47.5071 39.674 46.6445 40.3632 45.3216C40.9946 45.3216 41.6283 45.206 42.2019 44.977C43.5248 44.4589 44.3874 43.3673 44.732 41.6998C44.9054 41.6998 45.0766 41.642 45.2501 41.5842C46.4573 41.2974 47.3778 40.5503 47.838 39.3431C48.2404 38.1358 48.1248 36.9864 47.4356 35.9503C48.8163 34.8009 52.0935 34.6274 55.2549 34.514C55.5995 34.514 55.8863 34.1694 55.8863 33.8248C56.1175 33.3046 55.8307 33.0155 55.4283 33.0734L55.4277 33.0727ZM10.0653 41.3524C9.37604 40.95 8.91581 40.2608 8.80015 39.5137C8.68454 38.8823 8.85796 38.2486 9.20258 37.7306C9.89179 36.868 10.9857 36.3499 12.0195 36.3499C12.4797 36.3499 12.94 36.4655 13.3424 36.6945C13.8026 36.9235 14.1473 37.2704 14.2629 37.6728C14.4363 38.3043 14.2629 39.2247 13.687 40.1452C12.8266 41.5815 11.2725 42.0416 10.0653 41.3524ZM16.8509 45.4922C16.2751 45.6079 15.7592 45.5501 15.2412 45.2054C13.4581 44.1138 13.3448 43.1355 13.805 41.9861C14.1496 41.6993 14.4942 41.2969 14.7833 40.8944C14.9567 40.6076 15.0701 40.3186 15.2435 40.0318C16.6798 38.7667 18.7497 38.1931 19.7858 38.7667C20.1882 38.9957 20.475 39.3425 20.5907 39.745C20.8197 40.5498 20.5328 41.7571 19.728 43.08C18.9209 44.3984 17.8848 45.261 16.8509 45.4922ZM20.2993 48.1936C19.321 47.7334 18.7474 47.0442 18.6318 46.1815C19.4367 45.6634 20.1837 44.8008 20.8173 43.7669C21.4487 42.6752 21.7956 41.6392 21.909 40.7766C22.3692 40.6609 22.9428 40.5475 23.5186 40.8344C24.0945 41.1212 24.5525 41.5814 24.8415 42.3284C25.2439 43.3623 25.1283 44.5695 24.6125 45.7212C24.0367 46.9285 23.1184 47.9067 22.0245 48.2513C21.6221 48.367 20.9329 48.4804 20.2993 48.1936ZM26.7958 49.343C26.22 49.572 25.6464 49.572 25.0127 49.343C24.6103 49.1696 24.3235 48.9406 24.0344 48.5382C24.7815 47.9623 25.4151 47.1019 25.8175 46.1815C26.2778 45.2032 26.449 44.1693 26.3934 43.1333C26.9114 43.0755 27.4272 43.1333 27.8874 43.3067C28.3477 43.4801 28.6345 43.7669 28.8657 44.2271C29.2103 44.9742 29.1525 46.0102 28.7501 46.9863C28.2921 48.1936 27.6007 48.9985 26.7958 49.343ZM29.555 48.3092C29.6706 48.0802 29.8418 47.7912 29.8996 47.5043C30.1286 46.9285 30.2442 46.3549 30.302 45.7791C31.3937 46.4683 33.119 47.331 34.8443 47.6755C33.6949 49.114 31.914 49.343 29.555 48.3092Z" stroke-dasharray="0,0,0,520.0825805664062"><animate attributeType="XML" attributeName="stroke-dasharray" repeatCount="indefinite" dur="2.9411764705882355s" values="0,0,0,520.0825805664062; 
          0,260.0412902832031,260.0412902832031,0; 
          520.0825805664062,0,0,0" keyTimes="0; 0.5; 1" fill="freeze"></animate></path>
</mask>
<path d="M55.4277 33.0727C52.7263 33.1883 50.1962 33.3017 48.2999 33.9932L48.6445 33.2461C48.7602 32.9015 48.6445 32.4991 48.2999 32.3835C47.9553 32.2679 47.5529 32.3835 47.4373 32.7281L46.459 35.0848C44.2735 33.9931 42.0901 32.0944 39.7337 30.1401C34.8468 26.0003 29.3286 21.3447 23.0609 24.1041C23.1187 23.9885 23.1765 23.8751 23.2343 23.7017C23.35 23.357 23.1765 22.9546 22.8319 22.839C22.4851 22.7256 22.0827 22.8968 21.9671 23.2437C20.8176 26.3474 19.0923 28.533 17.0802 29.3378C15.8151 29.8558 14.5501 29.798 13.2272 29.1644C12.7092 28.9354 12.538 28.4173 12.4223 28.1305C12.2489 27.5547 12.3067 26.9232 12.5958 26.5208L16.391 20.3112C17.0224 19.2195 18.0585 18.3569 19.3235 17.8966C21.509 17.0918 23.6924 16.4026 25.8781 15.8267C27.201 15.4243 28.5795 15.4243 30.0179 15.6533L33.1217 16.2291C34.329 16.4581 35.1916 16.5738 35.9965 16.6316C41.6303 17.034 45.0229 19.3907 46.1146 23.5886C46.2302 23.9332 46.5748 24.1644 46.9195 24.0488C47.2641 23.9332 47.4953 23.5886 47.3797 23.2439C46.9773 21.692 46.288 20.3114 45.3098 19.2197C48.587 18.9329 51.8644 17.2076 54.6232 15.5401C54.91 15.3667 55.0256 14.9643 54.8522 14.6197C54.6787 14.3328 54.2763 14.2172 53.9317 14.3907C50.9413 16.1738 47.3771 18.0125 43.9291 17.8969C41.9748 16.4028 39.329 15.4823 36.0517 15.2533C35.3047 15.1955 34.4998 15.0799 33.2926 14.8509L30.1888 14.2751C28.5791 13.9883 26.9695 14.0461 25.4754 14.4485C25.1886 14.5063 24.9574 14.5641 24.6705 14.6775C19.3234 13.9305 14.9548 14.3907 11.3326 16.1716C9.14705 17.2054 6.1589 16.574 2.76596 15.6536C2.42134 15.5379 2.07675 15.7692 1.96109 16.1138C1.95887 16.574 2.19009 16.9764 2.5347 17.0342C4.77582 17.6101 6.90355 18.1259 8.74436 18.1259C9.89381 18.1259 10.9855 17.9525 12.0215 17.4945C14.6651 16.2294 17.7713 15.6558 21.393 15.827C20.5881 16.1138 19.7254 16.4028 18.9206 16.6896C17.3687 17.2654 16.1036 18.2993 15.2988 19.68L11.5035 25.8896C11.0433 26.5789 10.9277 27.6149 11.2167 28.5332C11.4457 29.3958 11.9638 30.0851 12.7108 30.3719C13.5734 30.8321 14.4939 31.0033 15.4121 31.0033C16.1592 31.0033 16.9062 30.8299 17.5977 30.5431C19.3808 29.8539 20.9327 28.2441 22.1399 26.0586H22.1977C28.3499 22.15 33.6967 26.6901 38.8705 31.1189C41.514 33.36 43.9864 35.4878 46.6323 36.5817C47.0347 37.2709 47.1503 37.9623 46.8613 38.7094C46.5745 39.4564 45.9986 39.9167 45.1938 40.1456C42.8371 40.7215 38.6972 38.8805 34.9601 35.5456C34.6732 35.3166 34.2709 35.3166 34.0396 35.6034C33.8106 35.8902 33.8106 36.2926 34.0974 36.5239C37.3746 39.3986 40.8808 41.2373 43.5844 41.5264C43.2975 42.5602 42.7217 43.2516 41.9169 43.5385C39.3867 44.5723 34.7891 42.2734 32.2586 40.3769C31.9718 40.1479 31.5694 40.2035 31.3381 40.4925C31.1091 40.7793 31.1647 41.1817 31.4537 41.413C33.2924 42.8492 36.3406 44.5167 39.1 44.977C38.5819 45.724 37.9505 46.1264 37.1457 46.3577C35.0758 46.8757 32.1432 45.495 30.1312 44.0587C30.0734 43.9431 30.0734 43.8297 30.0156 43.7141C29.671 42.9671 29.0951 42.3913 28.2903 42.1044C27.6011 41.8176 26.8541 41.7598 26.0492 41.8754C26.0492 41.8176 26.0492 41.8176 25.9914 41.7598C25.589 40.726 24.8997 39.9211 23.9793 39.5187C23.2901 39.2319 22.4852 39.1741 21.7381 39.3453C21.5091 38.5983 21.0489 37.9646 20.3019 37.5622C19.0946 36.873 17.1982 37.102 15.5306 38.0802C15.5306 37.7934 15.4728 37.5622 15.415 37.3332C15.186 36.5283 14.668 35.9525 13.8631 35.5501C12.1956 34.5718 9.95452 35.0321 8.45822 36.5284C6.21711 34.9765 3.68697 33.9983 0.754487 33.6536C0.409871 33.5958 0.0652773 33.8826 0.00744945 34.2294C-0.0503556 34.5741 0.23645 34.9187 0.58328 34.9765C3.28463 35.3211 5.58579 36.1838 7.65581 37.62C7.31119 38.2514 7.25339 39.0007 7.369 39.8055C7.598 40.955 8.28946 41.991 9.26547 42.5647C9.84131 42.9093 10.4727 43.0827 11.1042 43.0827C11.4488 43.0827 11.7934 43.0249 12.138 42.9093C12.0802 44.29 12.7695 45.3817 14.3791 46.4155C14.955 46.8179 15.5864 46.9913 16.2178 46.9913C16.5047 46.9913 16.7359 46.9335 17.0227 46.8757C17.0805 46.8757 17.1961 46.8179 17.2517 46.8179C17.5385 47.9674 18.3434 48.8878 19.5507 49.4614C20.0109 49.6904 20.5289 49.8061 20.9869 49.8061C21.4471 49.8061 21.8495 49.7483 22.3098 49.5771C22.4254 49.5193 22.5966 49.4614 22.7122 49.4036C23.1146 50.0351 23.6905 50.4375 24.3219 50.7265C24.7821 50.8999 25.2423 51.0133 25.7026 51.0133C26.1628 51.0133 26.623 50.8977 27.0833 50.7265C27.6591 50.4975 28.1171 50.0951 28.5773 49.5771C29.7846 50.1529 30.934 50.4397 31.9701 50.4397C33.7532 50.4397 35.1895 49.6348 36.1678 47.9673C36.5124 47.9673 36.9148 47.9095 37.2594 47.8517C38.5823 47.5071 39.674 46.6445 40.3632 45.3216C40.9946 45.3216 41.6283 45.206 42.2019 44.977C43.5248 44.4589 44.3874 43.3673 44.732 41.6998C44.9054 41.6998 45.0766 41.642 45.2501 41.5842C46.4573 41.2974 47.3778 40.5503 47.838 39.3431C48.2404 38.1358 48.1248 36.9864 47.4356 35.9503C48.8163 34.8009 52.0935 34.6274 55.2549 34.514C55.5995 34.514 55.8863 34.1694 55.8863 33.8248C56.1175 33.3046 55.8307 33.0155 55.4283 33.0734L55.4277 33.0727ZM10.0653 41.3524C9.37604 40.95 8.91581 40.2608 8.80015 39.5137C8.68454 38.8823 8.85796 38.2486 9.20258 37.7306C9.89179 36.868 10.9857 36.3499 12.0195 36.3499C12.4797 36.3499 12.94 36.4655 13.3424 36.6945C13.8026 36.9235 14.1473 37.2704 14.2629 37.6728C14.4363 38.3043 14.2629 39.2247 13.687 40.1452C12.8266 41.5815 11.2725 42.0416 10.0653 41.3524ZM16.8509 45.4922C16.2751 45.6079 15.7592 45.5501 15.2412 45.2054C13.4581 44.1138 13.3448 43.1355 13.805 41.9861C14.1496 41.6993 14.4942 41.2969 14.7833 40.8944C14.9567 40.6076 15.0701 40.3186 15.2435 40.0318C16.6798 38.7667 18.7497 38.1931 19.7858 38.7667C20.1882 38.9957 20.475 39.3425 20.5907 39.745C20.8197 40.5498 20.5328 41.7571 19.728 43.08C18.9209 44.3984 17.8848 45.261 16.8509 45.4922ZM20.2993 48.1936C19.321 47.7334 18.7474 47.0442 18.6318 46.1815C19.4367 45.6634 20.1837 44.8008 20.8173 43.7669C21.4487 42.6752 21.7956 41.6392 21.909 40.7766C22.3692 40.6609 22.9428 40.5475 23.5186 40.8344C24.0945 41.1212 24.5525 41.5814 24.8415 42.3284C25.2439 43.3623 25.1283 44.5695 24.6125 45.7212C24.0367 46.9285 23.1184 47.9067 22.0245 48.2513C21.6221 48.367 20.9329 48.4804 20.2993 48.1936ZM26.7958 49.343C26.22 49.572 25.6464 49.572 25.0127 49.343C24.6103 49.1696 24.3235 48.9406 24.0344 48.5382C24.7815 47.9623 25.4151 47.1019 25.8175 46.1815C26.2778 45.2032 26.449 44.1693 26.3934 43.1333C26.9114 43.0755 27.4272 43.1333 27.8874 43.3067C28.3477 43.4801 28.6345 43.7669 28.8657 44.2271C29.2103 44.9742 29.1525 46.0102 28.7501 46.9863C28.2921 48.1936 27.6007 48.9985 26.7958 49.343ZM29.555 48.3092C29.6706 48.0802 29.8418 47.7912 29.8996 47.5043C30.1286 46.9285 30.2442 46.3549 30.302 45.7791C31.3937 46.4683 33.119 47.331 34.8443 47.6755C33.6949 49.114 31.914 49.343 29.555 48.3092Z" stroke="#77D0FF" stroke-width="2" mask="url(#path-1-inside-1_717_1001)" stroke-dasharray="0,0,0,520.0825805664062"><animate attributeType="XML" attributeName="stroke-dasharray" repeatCount="indefinite" dur="2.9411764705882355s" values="0,0,0,520.0825805664062; 
          0,260.0412902832031,260.0412902832031,0; 
          520.0825805664062,0,0,0" keyTimes="0; 0.5; 1" fill="freeze"></animate></path>
<path d="M28.0188 58.9382L28.0187 58.9382V58.9456C28.0187 58.9768 28.0059 59.0098 27.9787 59.037C27.9515 59.0642 27.9185 59.077 27.8873 59.077C27.8868 59.077 27.8572 59.0757 27.8162 59.0296C27.7744 58.9826 27.7559 58.9258 27.7559 58.8878V54.977C27.7559 54.9765 27.7571 54.9468 27.8033 54.9058C27.8503 54.8641 27.907 54.8455 27.9451 54.8455C28.0281 54.8455 28.0622 54.8737 28.0701 54.8821C28.0746 54.8869 28.078 54.8923 28.0806 54.9009C28.0832 54.9096 28.087 54.9293 28.082 54.9636L28.0771 54.9964L28.0766 55.0296L28.0188 58.9382Z" stroke="#77D0FF" stroke-dasharray="0,0,0,8.805252075195312"><animate attributeType="XML" attributeName="stroke-dasharray" repeatCount="indefinite" dur="2.9411764705882355s" values="0,0,0,8.805252075195312; 
          0,4.402626037597656,4.402626037597656,0; 
          8.805252075195312,0,0,0" keyTimes="0; 0.5; 1" fill="freeze"></animate></path>
<path d="M16.4771 51.6117L16.4771 51.6117L16.4796 51.6132C16.5177 51.6359 16.5822 51.737 16.5235 51.8682L14.5226 55.242L14.514 55.2566L14.5063 55.2718C14.495 55.2941 14.4796 55.3095 14.4596 55.3209C14.4408 55.3316 14.4169 55.3392 14.3906 55.3412C14.3882 55.3404 14.3852 55.3393 14.3816 55.338C14.3696 55.3334 14.3539 55.3267 14.3321 55.3164C14.3174 55.3095 14.3025 55.3021 14.2853 55.2936C14.2731 55.2822 14.2458 55.2497 14.2303 55.1873C14.2219 55.1536 14.2202 55.1225 14.2228 55.0984C14.224 55.0867 14.226 55.0781 14.2279 55.0723C14.2297 55.0666 14.2311 55.0643 14.2311 55.0643L14.2311 55.0643L14.2333 55.0607L16.2435 51.6712C16.2478 51.6648 16.2796 51.6295 16.3542 51.6109C16.3878 51.6025 16.4189 51.6009 16.4431 51.6034C16.4547 51.6046 16.4634 51.6067 16.4691 51.6085C16.4748 51.6103 16.4772 51.6117 16.4771 51.6117Z" stroke="#77D0FF" stroke-dasharray="0,0,0,8.939413070678711"><animate attributeType="XML" attributeName="stroke-dasharray" repeatCount="indefinite" dur="2.9411764705882355s" values="0,0,0,8.939413070678711; 
          0,4.4697065353393555,4.4697065353393555,0; 
          8.939413070678711,0,0,0" keyTimes="0; 0.5; 1" fill="freeze"></animate></path>
<path d="M16.5502 11.7483L16.5446 11.7373L16.5384 11.7265L14.6419 8.39154L14.6328 8.37547L14.6225 8.36013C14.5812 8.29851 14.5851 8.25798 14.5897 8.24031C14.5947 8.22117 14.6105 8.19031 14.6611 8.16487L14.689 8.15084L14.7149 8.13344C14.7765 8.0921 14.817 8.09604 14.8347 8.10065C14.8538 8.10563 14.8847 8.12145 14.9101 8.172L14.915 8.18171L14.9203 8.1912L16.8168 11.584L16.8267 11.6017L16.8381 11.6186C16.8794 11.6802 16.8754 11.7207 16.8708 11.7384C16.8659 11.7573 16.8504 11.7876 16.8013 11.8129C16.7997 11.8133 16.7961 11.8141 16.7893 11.815C16.7809 11.8161 16.7688 11.817 16.7503 11.8176C16.7308 11.8182 16.7099 11.8183 16.6796 11.8183C16.6463 11.8183 16.6176 11.8098 16.5966 11.7978C16.5775 11.7869 16.562 11.7718 16.5502 11.7483ZM16.8024 11.8126C16.8024 11.8126 16.8022 11.8127 16.8016 11.8128L16.8024 11.8126Z" stroke="#77D0FF" stroke-dasharray="0,0,0,8.891275405883789"><animate attributeType="XML" attributeName="stroke-dasharray" repeatCount="indefinite" dur="2.9411764705882355s" values="0,0,0,8.891275405883789; 
          0,4.4456377029418945,4.4456377029418945,0; 
          8.891275405883789,0,0,0" keyTimes="0; 0.5; 1" fill="freeze"></animate></path>
<path d="M28.1613 4.67967L28.1613 4.67967V4.67227C28.1613 4.67178 28.1626 4.64212 28.2087 4.60114C28.2557 4.55941 28.3125 4.54083 28.3505 4.54083C28.351 4.54083 28.3807 4.54211 28.4217 4.58825C28.4634 4.63524 28.482 4.69199 28.482 4.73004V8.64088C28.482 8.64136 28.4807 8.67102 28.4346 8.712C28.3876 8.75374 28.3308 8.77232 28.2928 8.77232C28.2133 8.77232 28.1711 8.74589 28.15 8.72477C28.1293 8.70414 28.1035 8.66332 28.1035 8.58545L28.1613 4.67967Z" stroke="#77D0FF" stroke-dasharray="0,0,0,8.86241340637207"><animate attributeType="XML" attributeName="stroke-dasharray" repeatCount="indefinite" dur="2.9411764705882355s" values="0,0,0,8.86241340637207; 
          0,4.431206703186035,4.431206703186035,0; 
          8.86241340637207,0,0,0" keyTimes="0; 0.5; 1" fill="freeze"></animate></path>
<path d="M39.9924 11.9494L39.9837 11.964L39.9761 11.9791C39.9648 12.0015 39.9494 12.0168 39.9293 12.0283C39.9106 12.039 39.8866 12.0465 39.8603 12.0485C39.8579 12.0477 39.8549 12.0467 39.8513 12.0453C39.8393 12.0408 39.8236 12.034 39.8018 12.0237C39.7859 12.0162 39.7696 12.0082 39.7505 11.9987C39.7122 11.968 39.6595 11.8717 39.7143 11.749L41.7132 8.3785C41.7175 8.37219 41.7493 8.33684 41.8239 8.31822C41.8576 8.30981 41.8887 8.30819 41.9128 8.31073C41.9245 8.31196 41.9331 8.314 41.9389 8.31583C41.9443 8.31756 41.9467 8.31894 41.9468 8.31905C41.9468 8.31905 41.9468 8.31905 41.9468 8.31905C41.9468 8.31905 41.9468 8.31905 41.9468 8.31905C41.9468 8.31905 41.9468 8.31905 41.9468 8.31905C41.9519 8.32211 41.9885 8.3536 42.0075 8.42998C42.0159 8.46365 42.0176 8.49476 42.015 8.5189C42.0138 8.53056 42.0117 8.53919 42.0099 8.54494C42.0081 8.55063 42.0067 8.55299 42.0067 8.55294L42.0067 8.55293L42.0045 8.5566L39.9924 11.9494Z" stroke="#77D0FF" stroke-dasharray="0,0,0,8.939497947692871"><animate attributeType="XML" attributeName="stroke-dasharray" repeatCount="indefinite" dur="2.9411764705882355s" values="0,0,0,8.939497947692871; 
          0,4.4697489738464355,4.4697489738464355,0; 
          8.939497947692871,0,0,0" keyTimes="0; 0.5; 1" fill="freeze"></animate></path>
<path d="M39.6865 51.869L39.6906 51.8771L39.695 51.8851L41.5914 55.3357L41.6021 55.3551L41.6144 55.3734C41.6557 55.435 41.6518 55.4756 41.6472 55.4932C41.6423 55.5121 41.6268 55.5425 41.5777 55.5677C41.5761 55.5682 41.5724 55.569 41.5657 55.5698C41.5573 55.5709 41.5452 55.5719 41.5266 55.5725C41.5071 55.5731 41.4862 55.5731 41.456 55.5731C41.4227 55.5731 41.3939 55.5646 41.3729 55.5526C41.3539 55.5417 41.3383 55.5266 41.3265 55.5032L41.3218 55.4937L41.3166 55.4845L39.4201 52.0918L39.4102 52.074L39.3989 52.0571C39.3575 51.9955 39.3615 51.955 39.3661 51.9373C39.3711 51.9182 39.3869 51.8873 39.4374 51.8619L39.4653 51.8479L39.4913 51.8305C39.5529 51.7891 39.5934 51.7931 39.6111 51.7977C39.6302 51.8027 39.6611 51.8185 39.6865 51.869ZM41.5787 55.5674C41.5788 55.5674 41.5785 55.5675 41.5779 55.5677L41.5787 55.5674Z" stroke="#77D0FF" stroke-dasharray="0,0,0,8.99230670928955"><animate attributeType="XML" attributeName="stroke-dasharray" repeatCount="indefinite" dur="2.9411764705882355s" values="0,0,0,8.99230670928955; 
          0,4.496153354644775,4.496153354644775,0; 
          8.99230670928955,0,0,0" keyTimes="0; 0.5; 1" fill="freeze"></animate></path>
</svg>