<?xml version="1.0" standalone="no"?>
<svg id="Group324" width="56" height="63" viewBox="0 0 56 63" fill="none" xmlns="http://www.w3.org/2000/svg" style="max-width: 100%; max-height: 100%;">
<path d="M28 14.0402C18.64 14.0402 11.08 21.7286 11.08 31.0452C11.08 37.2864 14.41 42.8945 19.81 45.8794V53.0251C19.81 55.7387 22.06 58 24.76 58H31.33C34.03 58 36.28 55.7387 36.28 53.0251V45.8794C41.68 42.8945 45.01 37.196 45.01 31.0452C44.92 21.7286 37.36 14.0402 28 14.0402ZM34.3 43.9799C33.85 44.2513 33.58 44.7035 33.58 45.1558V53.1156C33.58 54.3819 32.59 55.3769 31.33 55.3769H24.76C23.5 55.3769 22.51 54.3819 22.51 53.1156V45.1558C22.51 44.6131 22.24 44.1608 21.79 43.9799C16.84 41.5377 13.87 36.6533 13.87 31.1357C13.87 23.2663 20.26 16.8442 28.09 16.8442C35.92 16.8442 42.31 23.2663 42.31 31.1357C42.22 36.5628 39.25 41.5377 34.3 43.9799ZM26.65 10.0603V5.35678C26.65 4.63317 27.28 4 28 4C28.72 4 29.35 4.63317 29.35 5.35678V10.0603C29.35 10.7839 28.72 11.4171 28 11.4171C27.28 11.4171 26.65 10.7839 26.65 10.0603ZM55 31.1357C55 31.8593 54.37 32.4925 53.65 32.4925H48.97C48.25 32.4925 47.62 31.8593 47.62 31.1357C47.62 30.4121 48.25 29.7789 48.97 29.7789H53.65C54.37 29.7789 55 30.4121 55 31.1357ZM8.38 31.1357C8.38 31.8593 7.75 32.4925 7.03 32.4925H2.35C1.63 32.4925 1 31.8593 1 31.1357C1 30.4121 1.63 29.7789 2.35 29.7789H7.03C7.84 29.7789 8.38 30.4121 8.38 31.1357ZM8.92 13.8593C8.38 13.3166 8.38 12.5025 8.92 11.9598C9.46 11.4171 10.27 11.4171 10.81 11.9598L14.14 15.3065C14.68 15.8492 14.68 16.6633 14.14 17.206C13.87 17.4774 13.51 17.5678 13.15 17.5678C12.79 17.5678 12.43 17.4774 12.16 17.206L8.92 13.8593ZM47.08 48.4121C47.62 48.9548 47.62 49.7688 47.08 50.3116C46.81 50.5829 46.45 50.6734 46.09 50.6734C45.73 50.6734 45.37 50.5829 45.1 50.3116L41.77 46.9648C41.23 46.4221 41.23 45.608 41.77 45.0653C42.31 44.5226 43.12 44.5226 43.66 45.0653L47.08 48.4121ZM47.08 11.9598C47.62 12.5025 47.62 13.3166 47.08 13.8593L43.75 17.206C43.48 17.4774 43.12 17.5678 42.76 17.5678C42.4 17.5678 42.04 17.4774 41.77 17.206C41.23 16.6633 41.23 15.8492 41.77 15.3065L45.1 11.9598C45.73 11.4171 46.54 11.4171 47.08 11.9598ZM14.14 45.0653C14.68 45.608 14.68 46.4221 14.14 46.9648L10.81 50.3116C10.54 50.5829 10.18 50.6734 9.82 50.6734C9.46 50.6734 9.1 50.5829 8.83 50.3116C8.29 49.7688 8.29 48.9548 8.83 48.4121L12.16 45.0653C12.79 44.5226 13.6 44.5226 14.14 45.0653ZM24.22 48.4121H31.69V51.1256H24.22V48.4121Z" stroke="#77D0FF" stroke-width="1.5" stroke-dasharray="0,0,0,380.8573303222656"><animate attributeType="XML" attributeName="stroke-dasharray" repeatCount="indefinite" dur="2.9411764705882355s" values="0,0,0,380.8573303222656; 
          0,190.4286651611328,190.4286651611328,0; 
          380.8573303222656,0,0,0" keyTimes="0; 0.5; 1" fill="freeze"></animate></path>
</svg>