<?xml version="1.0" standalone="no"?>
<svg id="Group328" width="56" height="63" viewBox="0 0 56 63" fill="none" xmlns="http://www.w3.org/2000/svg" style="max-width: 100%; max-height: 100%;">
<path d="M53.2013 54.8086H2.79883C2.194 54.8086 1.70312 55.3017 1.70312 55.9043C1.70312 56.5069 2.194 57 2.79883 57H53.2013C53.8039 57 54.297 56.5069 54.297 55.9043C54.297 55.3017 53.8039 54.8086 53.2013 54.8086Z" stroke="#77D0FF" stroke-dasharray="0,0,0,107.68701934814453"><animate attributeType="XML" attributeName="stroke-dasharray" repeatCount="indefinite" dur="2.9411764705882355s" values="0,0,0,107.68701934814453; 
          0,53.843509674072266,53.843509674072266,0; 
          107.68701934814453,0,0,0" keyTimes="0; 0.5; 1" fill="freeze"></animate></path>
<path d="M7.18164 52.6172H13.7559C14.3607 52.6172 14.8516 52.1241 14.8516 51.5215V42.7559C14.8516 42.1532 14.3607 41.6602 13.7559 41.6602H7.18164C6.57681 41.6602 6.08594 42.1532 6.08594 42.7559V51.5215C6.08594 52.1241 6.57681 52.6172 7.18164 52.6172ZM8.27735 43.8516H12.6602V50.4258H8.27735V43.8516Z" stroke="#77D0FF" stroke-dasharray="0,0,0,59.47688293457031"><animate attributeType="XML" attributeName="stroke-dasharray" repeatCount="indefinite" dur="2.9411764705882355s" values="0,0,0,59.47688293457031; 
          0,29.738441467285156,29.738441467285156,0; 
          59.47688293457031,0,0,0" keyTimes="0; 0.5; 1" fill="freeze"></animate></path>
<path d="M18.1387 35.086C17.5338 35.086 17.043 35.5791 17.043 36.1817V51.5216C17.043 52.1242 17.5338 52.6173 18.1387 52.6173H24.7129C25.3177 52.6173 25.8086 52.1242 25.8086 51.5216V36.1817C25.8086 35.5791 25.3177 35.086 24.7129 35.086H18.1387ZM23.6172 50.4259H19.2344V37.2774H23.6172V50.4259Z" stroke="#77D0FF" stroke-dasharray="0,0,0,85.77384948730469"><animate attributeType="XML" attributeName="stroke-dasharray" repeatCount="indefinite" dur="2.9411764705882355s" values="0,0,0,85.77384948730469; 
          0,42.886924743652344,42.886924743652344,0; 
          85.77384948730469,0,0,0" keyTimes="0; 0.5; 1" fill="freeze"></animate></path>
<path d="M29.0957 28.5117C28.4909 28.5117 28 29.0025 28 29.6074V51.5215C28 52.1241 28.4909 52.6172 29.0957 52.6172H35.6699C36.2726 52.6172 36.7656 52.1241 36.7656 51.5215V29.6074C36.7656 29.0025 36.2726 28.5117 35.6699 28.5117H29.0957ZM34.5742 50.4258H30.1914V30.7031H34.5742V50.4258Z" stroke="#77D0FF" stroke-dasharray="0,0,0,112.07068634033203"><animate attributeType="XML" attributeName="stroke-dasharray" repeatCount="indefinite" dur="2.9411764705882355s" values="0,0,0,112.07068634033203; 
          0,56.035343170166016,56.035343170166016,0; 
          112.07068634033203,0,0,0" keyTimes="0; 0.5; 1" fill="freeze"></animate></path>
<path d="M38.958 18.6503V51.5215C38.958 52.1241 39.4511 52.6172 40.0537 52.6172H46.6279C47.2306 52.6172 47.7236 52.1241 47.7236 51.5215V18.6503C47.7236 18.0455 47.2306 17.5546 46.6279 17.5546H40.0537C39.4511 17.5546 38.958 18.0455 38.958 18.6503ZM41.1494 19.746H45.5322V50.4258H41.1494V19.746Z" stroke="#77D0FF" stroke-dasharray="0,0,0,155.89808654785156"><animate attributeType="XML" attributeName="stroke-dasharray" repeatCount="indefinite" dur="2.9411764705882355s" values="0,0,0,155.89808654785156; 
          0,77.94904327392578,77.94904327392578,0; 
          155.89808654785156,0,0,0" keyTimes="0; 0.5; 1" fill="freeze"></animate></path>
<path d="M7.18127 37.2773C7.32152 37.2773 7.46396 37.251 7.59983 37.1941C16.5956 33.4621 24.6687 28.0624 31.5914 21.1442C35.1787 17.559 38.3585 13.5948 41.135 9.36533C41.3322 10.2748 41.5185 11.2039 41.6894 12.1484C41.7858 12.6766 42.2482 13.0469 42.7654 13.0469C42.8289 13.0469 42.8991 13.0425 42.9648 13.0294C43.5587 12.922 43.9509 12.35 43.8436 11.754C43.5039 9.87812 43.1116 8.05487 42.6909 6.33461C42.5484 5.74732 41.9633 5.38135 41.3673 5.53256C39.6711 5.94893 37.8917 6.32804 36.0772 6.65894C35.4833 6.76632 35.0889 7.33828 35.1985 7.93434C35.2949 8.46247 35.7573 8.83282 36.2744 8.83282C36.338 8.83282 36.4081 8.82844 36.4739 8.81529C37.4315 8.63998 38.3387 8.41864 39.2701 8.21923C36.5834 12.3018 33.5045 16.1302 30.0465 19.5926C23.3276 26.3071 15.4911 31.549 6.76271 35.167C6.2039 35.3971 5.93874 36.0392 6.16884 36.5958C6.34415 37.0231 6.75176 37.2773 7.18127 37.2773Z" stroke="#77D0FF" stroke-dasharray="0,0,0,115.79993438720703"><animate attributeType="XML" attributeName="stroke-dasharray" repeatCount="indefinite" dur="2.9411764705882355s" values="0,0,0,115.79993438720703; 
          0,57.899967193603516,57.899967193603516,0; 
          115.79993438720703,0,0,0" keyTimes="0; 0.5; 1" fill="freeze"></animate></path>
</svg>